<svg width="40" height="40" viewBox="0 0 40 40" fill="none" xmlns="http://www.w3.org/2000/svg">
<g clip-path="url(#clip0_349_153)">
<path d="M18.1875 4.2848C18.8735 4.19238 19.5647 4.1448 20.2568 4.14235C22.5794 4.14803 24.8718 4.67291 26.9683 5.67907C29.0648 6.68523 30.9131 8.14756 32.3796 9.96039C33.8462 11.7732 34.8944 13.8913 35.4484 16.1616C36.0025 18.4319 36.0487 20.7978 35.5836 23.0882L38.2267 27.7082C39.5054 24.7323 40.0343 21.4847 39.7665 18.2537C39.4987 15.0227 38.4424 11.9082 36.6915 9.18672C34.9405 6.46527 32.5491 4.22107 29.7295 2.65335C26.9099 1.08562 23.7493 0.242884 20.5284 0.199951L18.1875 4.2848Z" fill="#8DCDA2"/>
<path d="M7.8678 29.51C6.33839 27.5192 5.30581 25.1881 4.85676 22.7125C4.40771 20.2368 4.55529 17.6889 5.28713 15.2825C6.01896 12.8762 7.31367 10.6817 9.06257 8.88323C10.8115 7.08481 12.9635 5.73495 15.338 4.947L17.9849 0.326996C14.7852 0.700569 11.7267 1.8637 9.08097 3.71309C6.43524 5.56248 4.2842 8.04088 2.81888 10.9282C1.35356 13.8155 0.619321 17.0224 0.681364 20.264C0.743407 23.5056 1.59982 26.6816 3.17453 29.51H7.8678Z" fill="#8DCDA2"/>
<path d="M34.7226 25.8987C33.7733 28.2253 32.2838 30.289 30.3789 31.9169C28.4741 33.5448 26.2093 34.6895 23.7745 35.255C21.3396 35.8206 18.8056 35.7905 16.3846 35.1674C13.9637 34.5443 11.7264 33.3463 9.86013 31.6737H4.5625C6.48335 34.2765 9.01319 36.3613 11.9272 37.7431C14.8413 39.1249 18.0493 39.7609 21.2663 39.5944C24.4833 39.4279 27.6096 38.4642 30.3675 36.7889C33.1254 35.1136 35.4295 32.7786 37.075 29.9912L34.7226 25.8987Z" fill="#8DCDA2"/>
<path d="M20.2564 26.6764C23.9744 26.6764 26.9884 23.6427 26.9884 19.9004C26.9884 16.1581 23.9744 13.1244 20.2564 13.1244C16.5384 13.1244 13.5244 16.1581 13.5244 19.9004C13.5244 23.6427 16.5384 26.6764 20.2564 26.6764Z" fill="#8DCDA2"/>
</g>
<defs>
<clipPath id="clip0_349_153">
<rect width="40" height="40" fill="white"/>
</clipPath>
</defs>
</svg>
