<svg width="40" height="40" viewBox="0 0 40 40" fill="none" xmlns="http://www.w3.org/2000/svg">
<rect width="40" height="40" rx="8" fill="#FDF3F4"/>
<path d="M20.018 16.0139V20.0139M20.018 24.0139H20.028M29.748 25.0139L21.748 11.0139C21.5736 10.7061 21.3206 10.4501 21.0149 10.272C20.7092 10.0938 20.3618 10 20.008 10C19.6542 10 19.3068 10.0938 19.0011 10.272C18.6954 10.4501 18.4424 10.7061 18.268 11.0139L10.268 25.0139C10.0917 25.3193 9.99922 25.6658 10 26.0184C10.0008 26.371 10.0948 26.7171 10.2724 27.0217C10.4501 27.3263 10.7051 27.5785 11.0117 27.7527C11.3182 27.927 11.6654 28.0171 12.018 28.0139H28.018C28.3689 28.0135 28.7135 27.9209 29.0173 27.7452C29.321 27.5695 29.5732 27.317 29.7485 27.013C29.9238 26.709 30.016 26.3643 30.0159 26.0134C30.0159 25.6625 29.9234 25.3178 29.748 25.0139Z" stroke="#840B09" stroke-width="2" stroke-linecap="round" stroke-linejoin="round"/>
</svg>
