<svg width="192" height="96" viewBox="0 0 192 96" fill="none" xmlns="http://www.w3.org/2000/svg">
<path d="M172.397 52.0032C171.916 50.8351 171.187 49.7853 170.261 48.9264C169.349 48.124 168.34 47.4402 167.256 46.8912C166.178 46.3351 165.067 45.8446 163.93 45.4224C162.624 44.9136 161.391 44.3808 160.229 43.8144C159.17 43.3226 158.209 42.6428 157.392 41.808C157.039 41.4562 156.759 41.0371 156.57 40.5754C156.381 40.1137 156.287 39.6188 156.293 39.12C156.265 38.4689 156.394 37.8205 156.671 37.2304C156.948 36.6402 157.363 36.1259 157.882 35.7312C158.938 34.9152 160.392 34.5168 162.235 34.5168C163.706 34.5278 165.165 34.7774 166.555 35.256C168.021 35.7378 169.442 36.3448 170.803 37.0704L170.597 36.7584L165.936 29.6256C164.426 29.3483 162.893 29.2149 161.357 29.2272C159.318 29.2603 157.314 29.7525 155.491 30.6672C153.857 31.4763 152.482 32.7267 151.522 34.2768C150.578 35.8981 150.102 37.7487 150.144 39.624C150.092 41.1003 150.407 42.5665 151.061 43.8912C151.667 45.0387 152.514 46.0423 153.543 46.8336C154.592 47.6413 155.734 48.3198 156.946 48.8544C158.179 49.4016 159.346 49.9056 160.483 50.3376C161.588 50.752 162.657 51.2544 163.68 51.84C164.588 52.3329 165.4 52.983 166.08 53.76C166.709 54.5141 167.042 55.4713 167.016 56.4528C167.076 57.6022 166.71 58.7334 165.989 59.6304C165.281 60.4348 164.366 61.0306 163.344 61.3536C162.33 61.6993 161.267 61.8792 160.195 61.8864C159.108 61.8742 158.028 61.7127 156.984 61.4064C155.865 61.0984 154.777 60.6871 153.735 60.1776C152.744 59.7303 151.799 59.1886 150.912 58.56L156.192 66.6576C157.694 67.0032 159.23 67.1771 160.771 67.176C163.097 67.2365 165.403 66.7325 167.491 65.7072C169.244 64.8458 170.724 63.5169 171.768 61.8672C172.738 60.249 173.237 58.3921 173.208 56.5056C173.247 54.9652 172.971 53.4331 172.397 52.0032Z" fill="#8DCDA2"/>
<path d="M87.6239 36.2976C86.9877 34.8627 86.0322 33.592 84.8303 32.5824C83.5392 31.535 82.0622 30.7403 80.4767 30.24C78.6573 29.6831 76.7634 29.4079 74.8607 29.424H64.3535L70.3007 39.744V35.1696H75.8399C76.9495 35.1367 78.0521 35.3549 79.0655 35.808C79.8645 36.1972 80.5578 36.7735 81.0863 37.488C81.5587 38.1286 81.9161 38.8465 82.1423 39.6096C82.3323 40.2666 82.4308 40.9466 82.4351 41.6304C82.4303 42.3372 82.3203 43.0392 82.1087 43.7136C81.8738 44.4639 81.501 45.1639 81.0095 45.7776C80.4445 46.4683 79.7218 47.0132 78.9023 47.3664C77.872 47.8126 76.7558 48.0257 75.6335 47.9904H72.9263L75.1103 51.7776H74.9615L76.1231 53.7696C76.1676 53.7767 76.213 53.7767 76.2575 53.7696C78.1498 53.7755 80.0256 53.417 81.7823 52.7136C82.0272 52.6088 82.266 52.4902 82.4975 52.3584C83.7397 51.7483 84.8464 50.8945 85.7519 49.848C86.7451 48.6782 87.4883 47.3175 87.9359 45.8496C88.3614 44.4176 88.5812 42.9323 88.5887 41.4384C88.6324 39.676 88.3036 37.9242 87.6239 36.2976ZM82.4975 52.344L82.0799 51.6288L75.1103 51.7776H74.9615L76.1231 53.7696L83.7455 66.7296H90.7199L82.4975 52.344Z" fill="#8DCDA2"/>
<path d="M87.5186 66.744L104.069 27.8976H104.429L120.931 66.744H114.115L102.432 37.224L106.752 34.4064L93.4322 66.744H87.5186ZM97.973 52.9056H110.683L112.733 57.9264H96.125L97.973 52.9056Z" fill="#8DCDA2"/>
<path d="M116.674 29.4336H124.32L148.608 66.744H140.976L116.674 29.4336Z" fill="url(#paint0_linear_48_61)"/>
<path d="M153.403 23.9424L121.526 74.1888H112.728L144.605 23.9424H153.403Z" fill="url(#paint1_linear_48_61)"/>
<path d="M83.7455 66.7392L76.1231 53.7696L74.9663 51.7776H75.1151L76.2575 53.7552L83.7455 66.7392Z" fill="white"/>
<path d="M40.3921 29.0304C41.2529 28.9152 42.1204 28.8559 42.9889 28.8528C45.9035 28.8599 48.7802 29.5143 51.4111 30.7687C54.042 32.0232 56.3615 33.8463 58.2018 36.1065C60.0422 38.3666 61.3576 41.0074 62.0529 43.8379C62.7482 46.6684 62.8061 49.618 62.2225 52.4736L65.5393 58.2336C67.1439 54.5235 67.8077 50.4745 67.4716 46.4462C67.1355 42.4179 65.81 38.5349 63.6128 35.1419C61.4155 31.7489 58.4145 28.951 54.8762 26.9964C51.3378 25.0418 47.3716 23.9911 43.3297 23.9376L40.3921 29.0304Z" fill="#8DCDA2"/>
<path d="M27.4418 60.4799C25.5225 57.9979 24.2267 55.0916 23.6632 52.0051C23.0997 48.9186 23.2849 45.7419 24.2033 42.7418C25.1217 39.7417 26.7464 37.0057 28.9411 34.7635C31.1358 32.5213 33.8364 30.8383 36.8162 29.8559L40.1378 24.0959C36.1225 24.5617 32.2843 26.0118 28.9642 28.3176C25.644 30.6233 22.9447 33.7133 21.1059 37.313C19.267 40.9128 18.3456 44.911 18.4235 48.9525C18.5014 52.994 19.5761 56.9537 21.5522 60.4799H27.4418Z" fill="#8DCDA2"/>
<path d="M61.1424 55.9775C59.9511 58.8782 58.0819 61.4511 55.6915 63.4807C53.3011 65.5103 50.4591 66.9374 47.4036 67.6426C44.3481 68.3477 41.1681 68.3102 38.1301 67.5334C35.092 66.7565 32.2844 65.2628 29.9424 63.1775H23.2944C25.7049 66.4225 28.8796 69.0219 32.5365 70.7446C36.1933 72.4674 40.2191 73.2602 44.2561 73.0527C48.2931 72.8451 52.2163 71.6436 55.6772 69.5549C59.1381 67.4662 62.0294 64.555 64.0944 61.0799L61.1424 55.9775Z" fill="#8DCDA2"/>
<path d="M42.989 56.9471C47.6547 56.9471 51.437 53.1648 51.437 48.4991C51.437 43.8334 47.6547 40.0511 42.989 40.0511C38.3233 40.0511 34.541 43.8334 34.541 48.4991C34.541 53.1648 38.3233 56.9471 42.989 56.9471Z" fill="#8DCDA2"/>
<defs>
<linearGradient id="paint0_linear_48_61" x1="122.659" y1="32.7792" x2="144.149" y2="65.7504" gradientUnits="userSpaceOnUse">
<stop stop-color="#A1D7C2"/>
<stop offset="0.99" stop-color="#51C0A7"/>
</linearGradient>
<linearGradient id="paint1_linear_48_61" x1="143.141" y1="33.3888" x2="122.798" y2="65.0448" gradientUnits="userSpaceOnUse">
<stop stop-color="#A1D7C2"/>
<stop offset="0.99" stop-color="#51C0A7"/>
</linearGradient>
</defs>
</svg>
